<svg width="502" height="73" viewBox="0 0 502 73" fill="none" xmlns="http://www.w3.org/2000/svg">
<path d="M34.9538 34.7824L58.5 21.6781C63.9092 18.6305 65.8182 11.926 62.6364 6.44055C59.4545 1.25982 52.4543 -0.568701 46.727 2.47879L5.99866 25.0303L34.9538 34.7824Z" fill="#EA4335"/>
<path d="M52.4543 67.9999C56.5908 67.9999 60.4092 65.8667 62.3182 62.5143C65.5001 57.3337 63.5909 50.3244 58.1817 47.2768L17.4535 24.7253C12.0443 21.678 4.7259 23.5063 1.54401 28.6871C-1.6379 33.8679 0.271297 40.8772 5.68051 43.9246L46.4087 66.476C48.636 67.695 50.5452 67.9999 52.4543 67.9999Z" fill="#4285F4"/>
<path d="M92.8637 68C94.7729 68 96.682 67.3904 98.591 66.4761L139.319 43.9246L111.001 33.8679L87.1363 46.9722C81.7271 50.0198 79.8179 56.7242 82.9999 62.2097C85.2271 66.1714 89.0455 68 92.8637 68Z" fill="#FBBC04"/>
<path d="M133.592 45.7533C137.729 45.7533 141.547 43.6201 143.456 40.2678C146.638 35.087 144.729 28.0777 139.319 25.0303L98.5912 2.4788C93.182 -0.568709 85.8635 1.25981 82.6818 6.44055C79.4998 11.6213 81.409 18.6305 86.8182 21.6781L127.546 44.2296C129.456 45.1437 131.683 45.7533 133.592 45.7533Z" fill="#0F9D58"/>
<path d="M204.875 53.0312C203.333 55.2396 201.177 56.8958 198.406 58C195.656 59.0833 192.448 59.625 188.781 59.625C185.073 59.625 181.781 58.7604 178.906 57.0312C176.031 55.2812 173.802 52.8021 172.219 49.5938C170.656 46.3854 169.854 42.6667 169.812 38.4375V34.4688C169.812 27.6146 171.406 22.3021 174.594 18.5312C177.802 14.7604 182.302 12.875 188.094 12.875C192.844 12.875 196.667 14.0938 199.562 16.5312C202.458 18.9479 204.229 22.3854 204.875 26.8438H198.875C197.75 20.8229 194.167 17.8125 188.125 17.8125C184.104 17.8125 181.052 19.2292 178.969 22.0625C176.906 24.875 175.865 28.9583 175.844 34.3125V38.0312C175.844 43.1354 177.01 47.1979 179.344 50.2188C181.677 53.2188 184.833 54.7188 188.812 54.7188C191.062 54.7188 193.031 54.4688 194.719 53.9688C196.406 53.4688 197.802 52.625 198.906 51.4375V41.2188H188.375V36.3438H204.875V53.0312ZM214.906 59V13.5H227.75C231.708 13.5 235.208 14.375 238.25 16.125C241.292 17.875 243.635 20.3646 245.281 23.5938C246.948 26.8229 247.792 30.5312 247.812 34.7188V37.625C247.812 41.9167 246.979 45.6771 245.312 48.9062C243.667 52.1354 241.302 54.6146 238.219 56.3438C235.156 58.0729 231.583 58.9583 227.5 59H214.906ZM220.906 18.4375V54.0938H227.219C231.844 54.0938 235.438 52.6562 238 49.7812C240.583 46.9062 241.875 42.8125 241.875 37.5V34.8438C241.875 29.6771 240.656 25.6667 238.219 22.8125C235.802 19.9375 232.365 18.4792 227.906 18.4375H220.906ZM290.5 53.0312C288.958 55.2396 286.802 56.8958 284.031 58C281.281 59.0833 278.073 59.625 274.406 59.625C270.698 59.625 267.406 58.7604 264.531 57.0312C261.656 55.2812 259.427 52.8021 257.844 49.5938C256.281 46.3854 255.479 42.6667 255.438 38.4375V34.4688C255.438 27.6146 257.031 22.3021 260.219 18.5312C263.427 14.7604 267.927 12.875 273.719 12.875C278.469 12.875 282.292 14.0938 285.188 16.5312C288.083 18.9479 289.854 22.3854 290.5 26.8438H284.5C283.375 20.8229 279.792 17.8125 273.75 17.8125C269.729 17.8125 266.677 19.2292 264.594 22.0625C262.531 24.875 261.49 28.9583 261.469 34.3125V38.0312C261.469 43.1354 262.635 47.1979 264.969 50.2188C267.302 53.2188 270.458 54.7188 274.438 54.7188C276.688 54.7188 278.656 54.4688 280.344 53.9688C282.031 53.4688 283.427 52.625 284.531 51.4375V41.2188H274V36.3438H290.5V53.0312ZM322.438 54.0938H344V59H316.406V13.5H322.438V54.0938ZM370.812 59C370.479 58.3333 370.208 57.1458 370 55.4375C367.312 58.2292 364.104 59.625 360.375 59.625C357.042 59.625 354.302 58.6875 352.156 56.8125C350.031 54.9167 348.969 52.5208 348.969 49.625C348.969 46.1042 350.302 43.375 352.969 41.4375C355.656 39.4792 359.427 38.5 364.281 38.5H369.906V35.8438C369.906 33.8229 369.302 32.2188 368.094 31.0312C366.885 29.8229 365.104 29.2188 362.75 29.2188C360.688 29.2188 358.958 29.7396 357.562 30.7812C356.167 31.8229 355.469 33.0833 355.469 34.5625H349.656C349.656 32.875 350.25 31.25 351.438 29.6875C352.646 28.1042 354.271 26.8542 356.312 25.9375C358.375 25.0208 360.635 24.5625 363.094 24.5625C366.99 24.5625 370.042 25.5417 372.25 27.5C374.458 29.4375 375.604 32.1146 375.688 35.5312V51.0938C375.688 54.1979 376.083 56.6667 376.875 58.5V59H370.812ZM361.219 54.5938C363.031 54.5938 364.75 54.125 366.375 53.1875C368 52.25 369.177 51.0312 369.906 49.5312V42.5938H365.375C358.292 42.5938 354.75 44.6667 354.75 48.8125C354.75 50.625 355.354 52.0417 356.562 53.0625C357.771 54.0833 359.323 54.5938 361.219 54.5938ZM383.375 41.8125C383.375 36.5417 384.594 32.3542 387.031 29.25C389.469 26.125 392.698 24.5625 396.719 24.5625C400.844 24.5625 404.062 26.0208 406.375 28.9375L406.656 25.1875H411.938V58.1875C411.938 62.5625 410.635 66.0104 408.031 68.5312C405.448 71.0521 401.969 72.3125 397.594 72.3125C395.156 72.3125 392.771 71.7917 390.438 70.75C388.104 69.7083 386.323 68.2812 385.094 66.4688L388.094 63C390.573 66.0625 393.604 67.5938 397.188 67.5938C400 67.5938 402.188 66.8021 403.75 65.2188C405.333 63.6354 406.125 61.4062 406.125 58.5312V55.625C403.812 58.2917 400.656 59.625 396.656 59.625C392.698 59.625 389.49 58.0312 387.031 54.8438C384.594 51.6562 383.375 47.3125 383.375 41.8125ZM389.188 42.4688C389.188 46.2812 389.969 49.2812 391.531 51.4688C393.094 53.6354 395.281 54.7188 398.094 54.7188C401.74 54.7188 404.417 53.0625 406.125 49.75V34.3125C404.354 31.0833 401.698 29.4688 398.156 29.4688C395.344 29.4688 393.146 30.5625 391.562 32.75C389.979 34.9375 389.188 38.1771 389.188 42.4688ZM419.156 41.7812C419.156 38.4688 419.802 35.4896 421.094 32.8438C422.406 30.1979 424.219 28.1562 426.531 26.7188C428.865 25.2812 431.521 24.5625 434.5 24.5625C439.104 24.5625 442.823 26.1562 445.656 29.3438C448.51 32.5312 449.938 36.7708 449.938 42.0625V42.4688C449.938 45.7604 449.302 48.7188 448.031 51.3438C446.781 53.9479 444.979 55.9792 442.625 57.4375C440.292 58.8958 437.604 59.625 434.562 59.625C429.979 59.625 426.26 58.0312 423.406 54.8438C420.573 51.6562 419.156 47.4375 419.156 42.1875V41.7812ZM424.969 42.4688C424.969 46.2188 425.833 49.2292 427.562 51.5C429.312 53.7708 431.646 54.9062 434.562 54.9062C437.5 54.9062 439.833 53.7604 441.562 51.4688C443.292 49.1562 444.156 45.9271 444.156 41.7812C444.156 38.0729 443.271 35.0729 441.5 32.7812C439.75 30.4688 437.417 29.3125 434.5 29.3125C431.646 29.3125 429.344 30.4479 427.594 32.7188C425.844 34.9896 424.969 38.2396 424.969 42.4688ZM476.875 50.0312C476.875 48.4688 476.281 47.2604 475.094 46.4062C473.927 45.5312 471.875 44.7812 468.938 44.1562C466.021 43.5312 463.698 42.7812 461.969 41.9062C460.26 41.0312 458.99 39.9896 458.156 38.7812C457.344 37.5729 456.938 36.1354 456.938 34.4688C456.938 31.6979 458.104 29.3542 460.438 27.4375C462.792 25.5208 465.792 24.5625 469.438 24.5625C473.271 24.5625 476.375 25.5521 478.75 27.5312C481.146 29.5104 482.344 32.0417 482.344 35.125H476.531C476.531 33.5417 475.854 32.1771 474.5 31.0312C473.167 29.8854 471.479 29.3125 469.438 29.3125C467.333 29.3125 465.688 29.7708 464.5 30.6875C463.312 31.6042 462.719 32.8021 462.719 34.2812C462.719 35.6771 463.271 36.7292 464.375 37.4375C465.479 38.1458 467.469 38.8229 470.344 39.4688C473.24 40.1146 475.583 40.8854 477.375 41.7812C479.167 42.6771 480.49 43.7604 481.344 45.0312C482.219 46.2812 482.656 47.8125 482.656 49.625C482.656 52.6458 481.448 55.0729 479.031 56.9062C476.615 58.7188 473.479 59.625 469.625 59.625C466.917 59.625 464.521 59.1458 462.438 58.1875C460.354 57.2292 458.719 55.8958 457.531 54.1875C456.365 52.4583 455.781 50.5938 455.781 48.5938H461.562C461.667 50.5312 462.438 52.0729 463.875 53.2188C465.333 54.3438 467.25 54.9062 469.625 54.9062C471.812 54.9062 473.562 54.4688 474.875 53.5938C476.208 52.6979 476.875 51.5104 476.875 50.0312Z" fill="white"/>
</svg>
